<svg width="2480" height="2480" xmlns="http://www.w3.org/2000/svg" preserveAspectRatio="xMidYMid meet" version="1.0">

 <g>
  <title>Layer 1</title>
  <g stroke-width="0" id="svg_1" fill="#000000" transform="translate(0 2480) scale(0.1 -0.1)">
   <path fill="#DDDDDD" id="svg_2" d="m11993,20539c-160,-9 -340,-24 -400,-33c-59,-8 -139,-18 -178,-21c-38,-4 -97,-12 -130,-20c-33,-7 -91,-16 -128,-20c-37,-4 -82,-11 -100,-16c-18,-5 -61,-14 -97,-19c-36,-6 -94,-17 -130,-25c-36,-8 -114,-26 -175,-40c-148,-34 -356,-89 -475,-125c-131,-40 -376,-120 -395,-129c-11,-6 -31,-13 -45,-16c-14,-4 -38,-13 -55,-20c-16,-7 -68,-27 -115,-44c-47,-18 -94,-36 -105,-41c-11,-5 -54,-23 -95,-40c-41,-17 -88,-37 -105,-44c-16,-8 -50,-23 -75,-34c-124,-55 -178,-80 -330,-157c-91,-46 -190,-97 -220,-114c-30,-17 -68,-37 -85,-46c-99,-50 -373,-218 -550,-336c-198,-133 -203,-136 -405,-288c-727,-547 -1394,-1258 -1891,-2016c-97,-147 -155,-238 -162,-255c-4,-8 -32,-55 -62,-104c-30,-49 -55,-91 -55,-93c0,-2 -27,-51 -61,-110c-50,-88 -241,-470 -295,-588c-48,-107 -141,-333 -184,-450c-40,-110 -112,-313 -125,-355c-55,-175 -78,-253 -127,-430c-52,-189 -114,-478 -154,-715c-8,-49 -21,-126 -29,-170c-8,-44 -17,-111 -20,-150c-4,-38 -13,-115 -20,-170c-51,-363 -53,-1392 -4,-1729c5,-39 16,-127 24,-196c13,-116 29,-219 56,-365c6,-33 17,-94 24,-135c22,-117 82,-386 116,-510c54,-203 128,-451 154,-520c8,-19 17,-46 20,-60c7,-25 32,-96 65,-180c10,-25 28,-72 40,-105c38,-104 102,-256 171,-410c91,-202 295,-602 359,-705c5,-8 28,-46 50,-85c45,-78 43,-75 119,-195c461,-731 1007,-1355 1687,-1931c127,-107 374,-298 508,-391c121,-85 408,-274 469,-309c32,-19 66,-39 75,-44c9,-6 49,-29 87,-51c67,-40 97,-57 265,-147c92,-49 347,-177 353,-177c5,0 65,-27 232,-105c17,-7 59,-25 95,-40c36,-15 84,-35 108,-46c23,-10 47,-19 53,-19c6,0 25,-7 42,-15c104,-48 565,-200 777,-255c324,-85 343,-89 580,-135c47,-9 117,-22 155,-30c39,-8 104,-19 145,-24c41,-5 125,-17 185,-25c364,-50 615,-65 1070,-65c314,-1 657,12 772,29c37,5 120,14 183,20c63,6 153,17 200,25c47,8 130,22 185,31c213,36 253,43 330,59c95,20 429,101 500,121c127,37 191,56 335,103c190,62 269,88 295,100c11,5 54,21 95,37c41,15 94,36 117,46c23,10 45,18 49,18c4,0 26,8 48,19c23,10 70,31 106,46c129,54 229,102 450,214c224,113 261,133 332,174c20,12 86,50 145,85c176,103 327,201 513,332c47,33 96,67 110,77c76,53 155,113 330,254c107,87 204,166 215,176c11,11 54,48 95,83c155,132 569,550 719,725c14,17 51,60 81,95c120,140 284,349 407,520c56,77 297,441 345,520c74,122 186,320 239,422c7,13 16,30 20,38c44,81 239,487 239,498c0,4 7,21 16,37c9,17 21,46 29,65c7,19 34,87 60,150c26,63 53,133 61,155c7,22 25,72 39,110c36,97 105,310 144,442c62,212 83,288 106,398c7,33 20,89 28,125c83,348 158,862 177,1205c25,441 20,1027 -11,1295c-5,47 -16,148 -24,225c-8,77 -21,178 -29,225c-8,47 -19,117 -25,155c-14,100 -54,302 -88,445c-8,36 -21,92 -28,125c-7,33 -20,89 -29,125c-22,86 -41,154 -118,410c-11,36 -29,88 -39,115c-10,28 -19,56 -19,63c0,7 -8,34 -19,60c-10,26 -27,72 -38,102c-42,115 -130,337 -168,425c-35,80 -68,154 -85,190c-11,22 -24,51 -30,65c-5,14 -14,32 -19,40c-4,8 -34,67 -65,130c-118,241 -298,557 -431,760c-28,41 -54,83 -60,92c-91,159 -506,697 -718,933c-295,328 -759,763 -1052,988c-102,78 -266,200 -295,220c-14,9 -47,33 -75,52c-47,34 -237,160 -315,210c-116,73 -107,68 -202,123c-40,23 -80,47 -88,52c-39,24 -165,93 -250,137c-195,102 -246,127 -465,228c-50,24 -197,87 -245,105c-25,10 -74,30 -110,45c-36,14 -83,33 -105,40c-22,8 -71,26 -110,40c-241,91 -629,206 -910,270c-60,14 -139,32 -175,40c-36,8 -94,19 -130,25c-36,5 -79,14 -97,19c-18,5 -63,12 -100,16c-37,4 -95,13 -128,20c-33,8 -91,16 -130,20c-38,3 -117,13 -175,21c-160,22 -732,54 -940,53c-102,-1 -316,-10 -477,-20zm1147,-388c41,-6 127,-16 190,-21c337,-30 820,-122 1220,-232c186,-51 491,-148 547,-173c17,-8 35,-15 41,-15c5,0 31,-9 58,-19c243,-96 368,-147 429,-176c28,-13 86,-39 130,-59c170,-78 475,-237 646,-339c35,-20 82,-48 104,-62c22,-13 53,-32 69,-41c125,-70 526,-354 744,-527c488,-387 996,-907 1359,-1392c179,-240 268,-369 403,-585c29,-47 60,-96 69,-110c21,-34 47,-80 62,-110c7,-14 18,-32 25,-40c27,-34 246,-462 313,-610c18,-41 41,-93 51,-115c23,-50 47,-107 70,-165c10,-25 30,-74 45,-110c14,-36 33,-83 40,-105c8,-22 26,-71 40,-110c15,-38 31,-86 36,-105c5,-19 16,-51 23,-70c13,-34 45,-135 85,-270c76,-256 158,-603 186,-791c7,-48 18,-111 24,-140c19,-96 50,-340 66,-519c32,-365 37,-517 32,-835c-5,-286 -12,-388 -47,-735c-12,-127 -45,-359 -69,-495c-46,-252 -65,-339 -162,-715c-6,-25 -20,-70 -30,-100c-10,-30 -21,-70 -24,-88c-4,-18 -13,-45 -21,-60c-8,-15 -14,-34 -14,-42c0,-13 -26,-91 -91,-270c-11,-30 -26,-73 -33,-95c-8,-22 -20,-56 -29,-75c-8,-19 -24,-57 -35,-85c-33,-81 -73,-177 -93,-223c-10,-23 -29,-63 -40,-90c-41,-90 -200,-407 -244,-487c-25,-44 -52,-93 -60,-110c-8,-16 -26,-48 -40,-70c-13,-22 -30,-51 -37,-65c-7,-14 -30,-51 -51,-83c-20,-31 -37,-59 -37,-61c0,-3 -23,-40 -51,-83c-29,-43 -77,-116 -108,-163c-160,-244 -371,-517 -601,-780c-675,-771 -1476,-1389 -2390,-1846c-69,-34 -152,-74 -185,-89c-33,-15 -97,-45 -143,-66c-45,-22 -88,-39 -95,-39c-7,0 -21,-6 -32,-14c-11,-7 -31,-17 -45,-21c-14,-4 -38,-13 -55,-20c-16,-8 -61,-26 -100,-40c-38,-15 -91,-35 -117,-46c-26,-10 -53,-19 -60,-19c-7,0 -24,-6 -38,-13c-27,-14 -261,-90 -405,-132c-49,-14 -119,-35 -155,-46c-36,-10 -71,-19 -78,-19c-8,0 -44,-8 -80,-19c-273,-76 -720,-152 -1147,-193c-202,-20 -289,-23 -705,-23c-412,0 -505,3 -700,22c-431,42 -876,117 -1152,194c-36,11 -73,19 -82,19c-8,0 -35,6 -58,14c-24,8 -95,28 -158,46c-104,28 -179,52 -265,81c-16,6 -55,19 -85,29c-162,53 -478,175 -494,191c-6,5 -16,9 -24,9c-7,0 -39,12 -70,26c-31,15 -91,42 -132,61c-126,59 -350,171 -445,223c-49,28 -103,57 -120,66c-16,8 -48,26 -70,40c-22,13 -53,31 -70,39c-16,9 -49,28 -72,43c-23,15 -63,40 -90,56c-26,16 -113,72 -191,125c-79,53 -154,103 -166,111c-165,110 -499,377 -721,575c-170,153 -498,480 -610,609c-33,38 -80,92 -105,120c-52,59 -263,321 -333,414c-125,166 -355,511 -462,693c-15,25 -78,136 -111,194c-58,103 -246,482 -295,594c-27,64 -54,123 -58,132c-10,17 -103,255 -133,339c-11,30 -29,74 -39,98c-10,23 -19,49 -19,58c0,8 -8,36 -18,62c-27,67 -50,136 -73,217c-11,39 -26,93 -34,120c-8,28 -21,77 -30,110c-8,33 -22,85 -30,115c-49,184 -135,612 -149,740c-4,30 -13,98 -21,150c-69,447 -83,1229 -31,1750c24,241 75,582 116,775c11,50 24,113 29,140c23,111 65,281 96,390c69,240 99,336 127,407c10,26 18,53 18,60c0,12 15,55 60,168c10,25 41,105 70,179c29,74 56,142 61,150c4,9 22,50 40,91c111,263 314,654 461,888c32,51 58,95 58,97c0,4 215,325 271,405c105,149 284,376 458,580c125,146 552,581 682,695c44,39 88,77 97,85c89,78 396,322 524,416c99,73 297,206 428,289c100,64 105,67 166,103c22,12 57,34 79,47c22,13 54,31 70,39c17,8 66,36 110,60c76,42 404,207 490,246c98,45 155,69 219,95c38,15 77,31 85,36c9,4 48,20 86,34c39,15 90,35 115,45c25,10 56,22 70,25c14,3 34,10 45,15c23,11 121,45 185,65c194,61 328,100 410,120c30,7 118,29 195,48c277,68 723,147 920,162c44,4 116,11 160,17c44,6 136,14 205,18c171,11 1057,4 1150,-9z"/>
   <path fill="#DDDDDD" id="svg_3" d="m15745,19278c-3,-7 -6,-1552 -8,-3433l-2,-3420l-725,0l-725,0l-22,70c-22,73 -49,168 -82,295c-11,41 -32,118 -46,170c-14,52 -35,129 -46,170c-11,41 -28,104 -38,140c-10,36 -24,85 -30,110c-7,25 -21,79 -32,120c-11,41 -26,98 -34,125c-7,28 -27,102 -45,165c-17,63 -41,149 -52,190c-11,41 -29,109 -40,150c-11,41 -28,104 -38,140c-27,96 -86,315 -115,425c-7,28 -27,102 -45,165c-17,63 -40,148 -51,188c-20,76 -49,183 -79,292c-9,36 -34,128 -54,205c-21,77 -43,160 -51,185c-7,25 -23,83 -35,130c-12,47 -31,114 -41,150c-10,36 -27,99 -38,140c-11,41 -32,118 -46,170c-14,52 -35,129 -46,170c-25,95 -55,206 -79,290c-10,36 -28,103 -40,150c-12,47 -30,114 -41,150c-10,36 -27,99 -38,140c-63,236 -110,409 -126,465c-17,57 -37,135 -66,250c-11,44 -27,90 -35,102l-14,23l-339,0c-392,0 -362,9 -391,-112c-10,-40 -30,-116 -45,-168c-14,-52 -33,-120 -40,-150c-8,-30 -23,-86 -34,-125c-20,-70 -59,-215 -91,-335c-10,-36 -30,-110 -45,-165c-47,-179 -66,-249 -86,-320c-11,-38 -24,-88 -29,-110c-6,-22 -17,-62 -25,-90c-14,-47 -41,-145 -86,-315c-22,-83 -51,-191 -79,-290c-10,-36 -28,-103 -40,-150c-12,-47 -30,-112 -40,-145c-10,-33 -21,-76 -25,-95c-4,-19 -13,-55 -21,-80c-13,-41 -32,-111 -85,-310c-11,-41 -28,-108 -39,-147c-11,-40 -29,-106 -40,-145c-11,-40 -29,-109 -41,-153c-11,-44 -28,-102 -36,-130c-8,-27 -30,-108 -48,-180c-18,-71 -40,-152 -48,-180c-8,-27 -25,-86 -36,-130c-12,-44 -30,-113 -41,-152c-11,-40 -29,-106 -40,-145c-11,-40 -28,-107 -39,-148c-11,-41 -32,-118 -46,-170c-14,-52 -35,-129 -46,-170c-11,-41 -28,-104 -38,-140c-11,-36 -29,-101 -40,-145c-12,-44 -30,-113 -41,-152c-11,-40 -29,-106 -40,-145c-43,-160 -62,-224 -72,-235c-15,-18 -1438,-19 -1456,-1c-9,9 -12,773 -12,3375c0,3079 -1,3364 -16,3370c-16,6 -46,-7 -169,-75c-185,-103 -221,-127 -235,-151c-7,-14 -10,-2031 -10,-6535l0,-6515l37,-30c21,-17 41,-31 46,-31c5,0 21,-8 35,-19c25,-17 58,-35 252,-138c36,-19 69,-39 74,-44c6,-5 22,-9 37,-9c29,0 40,19 58,95c5,22 23,92 41,155c18,63 36,133 40,155c5,22 13,52 19,68c6,15 17,55 26,90c8,34 26,103 40,152c14,50 32,115 40,145c7,30 26,98 40,150c28,102 41,150 74,274c12,44 27,102 35,130c22,78 53,193 77,281c11,44 29,107 39,140c10,33 21,76 25,95c7,34 28,112 65,240c10,36 28,103 40,150c12,47 30,114 40,150c28,99 57,207 79,290c11,41 31,116 45,165c13,50 34,128 46,175c12,47 28,103 36,125c7,22 18,58 23,80c10,43 48,185 79,300c36,132 73,270 93,345c11,41 29,107 40,145c11,39 26,95 34,125c7,30 26,98 40,150c25,91 51,186 79,295c7,28 20,75 29,105c19,68 50,180 76,280c11,41 32,118 46,170c14,52 35,129 46,170c11,41 28,104 38,140c11,36 29,101 40,145c12,44 30,113 41,153c11,39 29,105 40,145c10,39 28,104 38,142c11,39 27,100 37,137c9,37 25,74 34,82c16,15 168,16 1557,14l1539,-3l12,-25c12,-25 50,-158 77,-270c8,-30 26,-98 41,-150c24,-86 41,-147 79,-295c7,-27 20,-75 29,-105c19,-68 50,-180 76,-280c19,-69 37,-138 92,-340c11,-41 29,-104 39,-140c10,-36 28,-103 40,-150c12,-47 30,-114 40,-150c28,-99 57,-207 79,-290c11,-41 31,-115 45,-165c13,-49 34,-128 46,-175c12,-47 28,-103 36,-125c7,-22 20,-67 28,-100c44,-178 53,-212 59,-223c4,-6 11,-30 16,-54c5,-24 23,-95 41,-158c17,-63 41,-149 52,-190c11,-41 29,-109 40,-150c25,-95 48,-179 82,-305c16,-55 34,-124 42,-152c8,-29 20,-77 28,-105c8,-29 27,-98 42,-153c14,-55 35,-129 44,-165c10,-36 27,-99 38,-140c11,-41 29,-109 40,-150c11,-41 35,-127 52,-190c18,-63 38,-139 46,-168c8,-28 20,-76 28,-105c8,-28 26,-95 40,-147c14,-52 34,-126 45,-165c10,-38 28,-104 39,-145c27,-100 70,-259 94,-345c27,-99 54,-198 77,-285c43,-164 47,-175 65,-178c19,-4 389,179 431,213l25,20l0,6650l0,6650l-24,20c-35,27 -362,195 -381,195c-9,0 -18,-6 -20,-12zm-3327,-1630c5,-18 17,-60 25,-93c41,-151 68,-254 82,-300c8,-27 19,-68 25,-90c5,-22 18,-71 29,-110c11,-38 29,-104 39,-145c11,-41 35,-127 52,-190c17,-63 40,-148 51,-187c27,-103 58,-216 80,-298c11,-38 26,-95 34,-125c8,-30 26,-98 40,-150c32,-115 47,-171 74,-274c12,-44 27,-102 35,-130c22,-78 53,-192 77,-281c11,-44 29,-109 40,-145c10,-36 23,-83 28,-105c13,-57 46,-181 64,-240c8,-27 25,-88 37,-135c12,-47 30,-114 40,-150c28,-99 57,-207 79,-290c11,-41 32,-118 46,-170c14,-52 35,-129 46,-170c11,-41 28,-104 38,-140c11,-36 29,-103 41,-150c12,-47 31,-114 41,-150c10,-36 27,-100 38,-142c20,-76 34,-128 85,-313c13,-49 34,-128 47,-175c12,-47 31,-111 41,-142c10,-32 18,-64 18,-73c0,-8 9,-42 21,-75c11,-34 18,-67 15,-75c-5,-13 -187,-15 -1428,-13c-1368,3 -1423,4 -1426,21c-2,10 5,49 17,85c11,37 29,102 40,145c21,76 36,134 86,317c14,52 35,129 46,170c11,41 28,104 38,140c10,36 29,103 41,150c12,47 30,114 40,150c10,36 30,110 45,165c15,55 32,120 39,145c8,25 23,83 36,130c12,47 33,126 46,175c51,185 65,237 85,313c11,42 29,106 39,142c10,36 28,103 40,150c12,47 29,108 37,135c8,28 24,83 34,123c10,39 28,107 40,150c11,42 30,111 41,152c11,41 29,107 39,145c20,69 42,150 80,295c28,105 55,203 78,285c10,39 28,104 39,145c22,83 64,237 93,345c11,39 31,113 45,165c14,52 32,118 39,145c8,28 19,70 26,95c6,25 20,74 30,110c38,139 105,389 125,465c30,114 45,131 62,73zm-2037,-5684c10,-13 10,-21 0,-47c-7,-18 -21,-63 -31,-102c-10,-38 -30,-113 -45,-165c-15,-52 -31,-113 -35,-135c-5,-22 -13,-52 -19,-68c-6,-15 -17,-55 -26,-90c-8,-34 -26,-102 -40,-152c-14,-49 -32,-115 -40,-145c-7,-30 -26,-98 -40,-150c-28,-102 -41,-150 -74,-274c-12,-44 -27,-102 -35,-130c-21,-74 -52,-190 -75,-276c-11,-41 -32,-118 -46,-170c-14,-52 -35,-129 -46,-170c-11,-41 -28,-104 -38,-140c-11,-36 -29,-103 -41,-150c-12,-47 -30,-114 -40,-150c-28,-99 -57,-207 -79,-290c-11,-41 -32,-118 -46,-170c-14,-52 -35,-129 -46,-170c-11,-41 -28,-104 -38,-140c-11,-36 -29,-103 -41,-150c-21,-80 -34,-129 -80,-295c-11,-38 -28,-104 -39,-145c-50,-186 -64,-239 -82,-300c-10,-36 -25,-92 -34,-125c-8,-33 -27,-103 -41,-155c-14,-52 -30,-114 -35,-138c-4,-23 -13,-51 -18,-61c-6,-10 -15,-46 -20,-80c-10,-62 -56,-179 -67,-169c-3,3 -5,1105 -4,2449c0,2275 1,2445 17,2457c13,9 162,12 664,12c577,0 648,-2 660,-16zm5348,2c8,-10 11,-623 12,-2352c0,-1287 4,-2373 8,-2414c4,-41 6,-83 3,-92c-12,-48 -46,9 -67,114c-8,40 -26,114 -40,163c-14,50 -32,115 -40,145c-7,30 -26,98 -40,150c-15,52 -32,118 -40,145c-7,28 -25,95 -40,150c-15,55 -35,129 -45,165c-32,120 -71,265 -91,335c-11,39 -26,95 -34,125c-7,30 -25,98 -40,150c-14,52 -32,120 -40,150c-8,30 -23,87 -34,125c-20,70 -59,215 -91,335c-10,36 -30,110 -45,165c-63,235 -84,314 -125,460c-12,44 -31,114 -42,155c-29,114 -43,165 -78,290c-17,63 -40,148 -51,188c-24,90 -55,205 -80,297c-27,97 -57,207 -79,290c-10,39 -28,106 -40,150c-12,44 -30,109 -40,145c-51,189 -73,272 -91,335c-31,109 -32,114 -25,130c5,13 84,15 654,15c537,0 652,-2 661,-14z"/>
  </g>
 </g>
</svg>