<?xml version="1.0" standalone="no"?>
<!DOCTYPE svg PUBLIC "-//W3C//DTD SVG 20010904//EN"
 "http://www.w3.org/TR/2001/REC-SVG-20010904/DTD/svg10.dtd">
<svg version="1.0" xmlns="http://www.w3.org/2000/svg"
 width="2480.000000pt" height="2480.000000pt" viewBox="0 0 2480.000000 2480.000000"
 preserveAspectRatio="xMidYMid meet">

<g transform="translate(0.000000,2480.000000) scale(0.100000,-0.100000)"
fill="#000000" stroke="none">
<path d="M11993 20539 c-160 -9 -340 -24 -400 -33 -59 -8 -139 -18 -178 -21
-38 -4 -97 -12 -130 -20 -33 -7 -91 -16 -128 -20 -37 -4 -82 -11 -100 -16 -18
-5 -61 -14 -97 -19 -36 -6 -94 -17 -130 -25 -36 -8 -114 -26 -175 -40 -148
-34 -356 -89 -475 -125 -131 -40 -376 -120 -395 -129 -11 -6 -31 -13 -45 -16
-14 -4 -38 -13 -55 -20 -16 -7 -68 -27 -115 -44 -47 -18 -94 -36 -105 -41 -11
-5 -54 -23 -95 -40 -41 -17 -88 -37 -105 -44 -16 -8 -50 -23 -75 -34 -124 -55
-178 -80 -330 -157 -91 -46 -190 -97 -220 -114 -30 -17 -68 -37 -85 -46 -99
-50 -373 -218 -550 -336 -198 -133 -203 -136 -405 -288 -727 -547 -1394 -1258
-1891 -2016 -97 -147 -155 -238 -162 -255 -4 -8 -32 -55 -62 -104 -30 -49 -55
-91 -55 -93 0 -2 -27 -51 -61 -110 -50 -88 -241 -470 -295 -588 -48 -107 -141
-333 -184 -450 -40 -110 -112 -313 -125 -355 -55 -175 -78 -253 -127 -430 -52
-189 -114 -478 -154 -715 -8 -49 -21 -126 -29 -170 -8 -44 -17 -111 -20 -150
-4 -38 -13 -115 -20 -170 -51 -363 -53 -1392 -4 -1729 5 -39 16 -127 24 -196
13 -116 29 -219 56 -365 6 -33 17 -94 24 -135 22 -117 82 -386 116 -510 54
-203 128 -451 154 -520 8 -19 17 -46 20 -60 7 -25 32 -96 65 -180 10 -25 28
-72 40 -105 38 -104 102 -256 171 -410 91 -202 295 -602 359 -705 5 -8 28 -46
50 -85 45 -78 43 -75 119 -195 461 -731 1007 -1355 1687 -1931 127 -107 374
-298 508 -391 121 -85 408 -274 469 -309 32 -19 66 -39 75 -44 9 -6 49 -29 87
-51 67 -40 97 -57 265 -147 92 -49 347 -177 353 -177 5 0 65 -27 232 -105 17
-7 59 -25 95 -40 36 -15 84 -35 108 -46 23 -10 47 -19 53 -19 6 0 25 -7 42
-15 104 -48 565 -200 777 -255 324 -85 343 -89 580 -135 47 -9 117 -22 155
-30 39 -8 104 -19 145 -24 41 -5 125 -17 185 -25 364 -50 615 -65 1070 -65
314 -1 657 12 772 29 37 5 120 14 183 20 63 6 153 17 200 25 47 8 130 22 185
31 213 36 253 43 330 59 95 20 429 101 500 121 127 37 191 56 335 103 190 62
269 88 295 100 11 5 54 21 95 37 41 15 94 36 117 46 23 10 45 18 49 18 4 0 26
8 48 19 23 10 70 31 106 46 129 54 229 102 450 214 224 113 261 133 332 174
20 12 86 50 145 85 176 103 327 201 513 332 47 33 96 67 110 77 76 53 155 113
330 254 107 87 204 166 215 176 11 11 54 48 95 83 155 132 569 550 719 725 14
17 51 60 81 95 120 140 284 349 407 520 56 77 297 441 345 520 74 122 186 320
239 422 7 13 16 30 20 38 44 81 239 487 239 498 0 4 7 21 16 37 9 17 21 46 29
65 7 19 34 87 60 150 26 63 53 133 61 155 7 22 25 72 39 110 36 97 105 310
144 442 62 212 83 288 106 398 7 33 20 89 28 125 83 348 158 862 177 1205 25
441 20 1027 -11 1295 -5 47 -16 148 -24 225 -8 77 -21 178 -29 225 -8 47 -19
117 -25 155 -14 100 -54 302 -88 445 -8 36 -21 92 -28 125 -7 33 -20 89 -29
125 -22 86 -41 154 -118 410 -11 36 -29 88 -39 115 -10 28 -19 56 -19 63 0 7
-8 34 -19 60 -10 26 -27 72 -38 102 -42 115 -130 337 -168 425 -35 80 -68 154
-85 190 -11 22 -24 51 -30 65 -5 14 -14 32 -19 40 -4 8 -34 67 -65 130 -118
241 -298 557 -431 760 -28 41 -54 83 -60 92 -91 159 -506 697 -718 933 -295
328 -759 763 -1052 988 -102 78 -266 200 -295 220 -14 9 -47 33 -75 52 -47 34
-237 160 -315 210 -116 73 -107 68 -202 123 -40 23 -80 47 -88 52 -39 24 -165
93 -250 137 -195 102 -246 127 -465 228 -50 24 -197 87 -245 105 -25 10 -74
30 -110 45 -36 14 -83 33 -105 40 -22 8 -71 26 -110 40 -241 91 -629 206 -910
270 -60 14 -139 32 -175 40 -36 8 -94 19 -130 25 -36 5 -79 14 -97 19 -18 5
-63 12 -100 16 -37 4 -95 13 -128 20 -33 8 -91 16 -130 20 -38 3 -117 13 -175
21 -160 22 -732 54 -940 53 -102 -1 -316 -10 -477 -20z m1147 -388 c41 -6 127
-16 190 -21 337 -30 820 -122 1220 -232 186 -51 491 -148 547 -173 17 -8 35
-15 41 -15 5 0 31 -9 58 -19 243 -96 368 -147 429 -176 28 -13 86 -39 130 -59
170 -78 475 -237 646 -339 35 -20 82 -48 104 -62 22 -13 53 -32 69 -41 125
-70 526 -354 744 -527 488 -387 996 -907 1359 -1392 179 -240 268 -369 403
-585 29 -47 60 -96 69 -110 21 -34 47 -80 62 -110 7 -14 18 -32 25 -40 27 -34
246 -462 313 -610 18 -41 41 -93 51 -115 23 -50 47 -107 70 -165 10 -25 30
-74 45 -110 14 -36 33 -83 40 -105 8 -22 26 -71 40 -110 15 -38 31 -86 36
-105 5 -19 16 -51 23 -70 13 -34 45 -135 85 -270 76 -256 158 -603 186 -791 7
-48 18 -111 24 -140 19 -96 50 -340 66 -519 32 -365 37 -517 32 -835 -5 -286
-12 -388 -47 -735 -12 -127 -45 -359 -69 -495 -46 -252 -65 -339 -162 -715 -6
-25 -20 -70 -30 -100 -10 -30 -21 -70 -24 -88 -4 -18 -13 -45 -21 -60 -8 -15
-14 -34 -14 -42 0 -13 -26 -91 -91 -270 -11 -30 -26 -73 -33 -95 -8 -22 -20
-56 -29 -75 -8 -19 -24 -57 -35 -85 -33 -81 -73 -177 -93 -223 -10 -23 -29
-63 -40 -90 -41 -90 -200 -407 -244 -487 -25 -44 -52 -93 -60 -110 -8 -16 -26
-48 -40 -70 -13 -22 -30 -51 -37 -65 -7 -14 -30 -51 -51 -83 -20 -31 -37 -59
-37 -61 0 -3 -23 -40 -51 -83 -29 -43 -77 -116 -108 -163 -160 -244 -371 -517
-601 -780 -675 -771 -1476 -1389 -2390 -1846 -69 -34 -152 -74 -185 -89 -33
-15 -97 -45 -143 -66 -45 -22 -88 -39 -95 -39 -7 0 -21 -6 -32 -14 -11 -7 -31
-17 -45 -21 -14 -4 -38 -13 -55 -20 -16 -8 -61 -26 -100 -40 -38 -15 -91 -35
-117 -46 -26 -10 -53 -19 -60 -19 -7 0 -24 -6 -38 -13 -27 -14 -261 -90 -405
-132 -49 -14 -119 -35 -155 -46 -36 -10 -71 -19 -78 -19 -8 0 -44 -8 -80 -19
-273 -76 -720 -152 -1147 -193 -202 -20 -289 -23 -705 -23 -412 0 -505 3 -700
22 -431 42 -876 117 -1152 194 -36 11 -73 19 -82 19 -8 0 -35 6 -58 14 -24 8
-95 28 -158 46 -104 28 -179 52 -265 81 -16 6 -55 19 -85 29 -162 53 -478 175
-494 191 -6 5 -16 9 -24 9 -7 0 -39 12 -70 26 -31 15 -91 42 -132 61 -126 59
-350 171 -445 223 -49 28 -103 57 -120 66 -16 8 -48 26 -70 40 -22 13 -53 31
-70 39 -16 9 -49 28 -72 43 -23 15 -63 40 -90 56 -26 16 -113 72 -191 125 -79
53 -154 103 -166 111 -165 110 -499 377 -721 575 -170 153 -498 480 -610 609
-33 38 -80 92 -105 120 -52 59 -263 321 -333 414 -125 166 -355 511 -462 693
-15 25 -78 136 -111 194 -58 103 -246 482 -295 594 -27 64 -54 123 -58 132
-10 17 -103 255 -133 339 -11 30 -29 74 -39 98 -10 23 -19 49 -19 58 0 8 -8
36 -18 62 -27 67 -50 136 -73 217 -11 39 -26 93 -34 120 -8 28 -21 77 -30 110
-8 33 -22 85 -30 115 -49 184 -135 612 -149 740 -4 30 -13 98 -21 150 -69 447
-83 1229 -31 1750 24 241 75 582 116 775 11 50 24 113 29 140 23 111 65 281
96 390 69 240 99 336 127 407 10 26 18 53 18 60 0 12 15 55 60 168 10 25 41
105 70 179 29 74 56 142 61 150 4 9 22 50 40 91 111 263 314 654 461 888 32
51 58 95 58 97 0 4 215 325 271 405 105 149 284 376 458 580 125 146 552 581
682 695 44 39 88 77 97 85 89 78 396 322 524 416 99 73 297 206 428 289 100
64 105 67 166 103 22 12 57 34 79 47 22 13 54 31 70 39 17 8 66 36 110 60 76
42 404 207 490 246 98 45 155 69 219 95 38 15 77 31 85 36 9 4 48 20 86 34 39
15 90 35 115 45 25 10 56 22 70 25 14 3 34 10 45 15 23 11 121 45 185 65 194
61 328 100 410 120 30 7 118 29 195 48 277 68 723 147 920 162 44 4 116 11
160 17 44 6 136 14 205 18 171 11 1057 4 1150 -9z"/>
<path d="M15745 19278 c-3 -7 -6 -1552 -8 -3433 l-2 -3420 -725 0 -725 0 -22
70 c-22 73 -49 168 -82 295 -11 41 -32 118 -46 170 -14 52 -35 129 -46 170
-11 41 -28 104 -38 140 -10 36 -24 85 -30 110 -7 25 -21 79 -32 120 -11 41
-26 98 -34 125 -7 28 -27 102 -45 165 -17 63 -41 149 -52 190 -11 41 -29 109
-40 150 -11 41 -28 104 -38 140 -27 96 -86 315 -115 425 -7 28 -27 102 -45
165 -17 63 -40 148 -51 188 -20 76 -49 183 -79 292 -9 36 -34 128 -54 205 -21
77 -43 160 -51 185 -7 25 -23 83 -35 130 -12 47 -31 114 -41 150 -10 36 -27
99 -38 140 -11 41 -32 118 -46 170 -14 52 -35 129 -46 170 -25 95 -55 206 -79
290 -10 36 -28 103 -40 150 -12 47 -30 114 -41 150 -10 36 -27 99 -38 140 -63
236 -110 409 -126 465 -17 57 -37 135 -66 250 -11 44 -27 90 -35 102 l-14 23
-339 0 c-392 0 -362 9 -391 -112 -10 -40 -30 -116 -45 -168 -14 -52 -33 -120
-40 -150 -8 -30 -23 -86 -34 -125 -20 -70 -59 -215 -91 -335 -10 -36 -30 -110
-45 -165 -47 -179 -66 -249 -86 -320 -11 -38 -24 -88 -29 -110 -6 -22 -17 -62
-25 -90 -14 -47 -41 -145 -86 -315 -22 -83 -51 -191 -79 -290 -10 -36 -28
-103 -40 -150 -12 -47 -30 -112 -40 -145 -10 -33 -21 -76 -25 -95 -4 -19 -13
-55 -21 -80 -13 -41 -32 -111 -85 -310 -11 -41 -28 -108 -39 -147 -11 -40 -29
-106 -40 -145 -11 -40 -29 -109 -41 -153 -11 -44 -28 -102 -36 -130 -8 -27
-30 -108 -48 -180 -18 -71 -40 -152 -48 -180 -8 -27 -25 -86 -36 -130 -12 -44
-30 -113 -41 -152 -11 -40 -29 -106 -40 -145 -11 -40 -28 -107 -39 -148 -11
-41 -32 -118 -46 -170 -14 -52 -35 -129 -46 -170 -11 -41 -28 -104 -38 -140
-11 -36 -29 -101 -40 -145 -12 -44 -30 -113 -41 -152 -11 -40 -29 -106 -40
-145 -43 -160 -62 -224 -72 -235 -15 -18 -1438 -19 -1456 -1 -9 9 -12 773 -12
3375 0 3079 -1 3364 -16 3370 -16 6 -46 -7 -169 -75 -185 -103 -221 -127 -235
-151 -7 -14 -10 -2031 -10 -6535 l0 -6515 37 -30 c21 -17 41 -31 46 -31 5 0
21 -8 35 -19 25 -17 58 -35 252 -138 36 -19 69 -39 74 -44 6 -5 22 -9 37 -9
29 0 40 19 58 95 5 22 23 92 41 155 18 63 36 133 40 155 5 22 13 52 19 68 6
15 17 55 26 90 8 34 26 103 40 152 14 50 32 115 40 145 7 30 26 98 40 150 28
102 41 150 74 274 12 44 27 102 35 130 22 78 53 193 77 281 11 44 29 107 39
140 10 33 21 76 25 95 7 34 28 112 65 240 10 36 28 103 40 150 12 47 30 114
40 150 28 99 57 207 79 290 11 41 31 116 45 165 13 50 34 128 46 175 12 47 28
103 36 125 7 22 18 58 23 80 10 43 48 185 79 300 36 132 73 270 93 345 11 41
29 107 40 145 11 39 26 95 34 125 7 30 26 98 40 150 25 91 51 186 79 295 7 28
20 75 29 105 19 68 50 180 76 280 11 41 32 118 46 170 14 52 35 129 46 170 11
41 28 104 38 140 11 36 29 101 40 145 12 44 30 113 41 153 11 39 29 105 40
145 10 39 28 104 38 142 11 39 27 100 37 137 9 37 25 74 34 82 16 15 168 16
1557 14 l1539 -3 12 -25 c12 -25 50 -158 77 -270 8 -30 26 -98 41 -150 24 -86
41 -147 79 -295 7 -27 20 -75 29 -105 19 -68 50 -180 76 -280 19 -69 37 -138
92 -340 11 -41 29 -104 39 -140 10 -36 28 -103 40 -150 12 -47 30 -114 40
-150 28 -99 57 -207 79 -290 11 -41 31 -115 45 -165 13 -49 34 -128 46 -175
12 -47 28 -103 36 -125 7 -22 20 -67 28 -100 44 -178 53 -212 59 -223 4 -6 11
-30 16 -54 5 -24 23 -95 41 -158 17 -63 41 -149 52 -190 11 -41 29 -109 40
-150 25 -95 48 -179 82 -305 16 -55 34 -124 42 -152 8 -29 20 -77 28 -105 8
-29 27 -98 42 -153 14 -55 35 -129 44 -165 10 -36 27 -99 38 -140 11 -41 29
-109 40 -150 11 -41 35 -127 52 -190 18 -63 38 -139 46 -168 8 -28 20 -76 28
-105 8 -28 26 -95 40 -147 14 -52 34 -126 45 -165 10 -38 28 -104 39 -145 27
-100 70 -259 94 -345 27 -99 54 -198 77 -285 43 -164 47 -175 65 -178 19 -4
389 179 431 213 l25 20 0 6650 0 6650 -24 20 c-35 27 -362 195 -381 195 -9 0
-18 -6 -20 -12z m-3327 -1630 c5 -18 17 -60 25 -93 41 -151 68 -254 82 -300 8
-27 19 -68 25 -90 5 -22 18 -71 29 -110 11 -38 29 -104 39 -145 11 -41 35
-127 52 -190 17 -63 40 -148 51 -187 27 -103 58 -216 80 -298 11 -38 26 -95
34 -125 8 -30 26 -98 40 -150 32 -115 47 -171 74 -274 12 -44 27 -102 35 -130
22 -78 53 -192 77 -281 11 -44 29 -109 40 -145 10 -36 23 -83 28 -105 13 -57
46 -181 64 -240 8 -27 25 -88 37 -135 12 -47 30 -114 40 -150 28 -99 57 -207
79 -290 11 -41 32 -118 46 -170 14 -52 35 -129 46 -170 11 -41 28 -104 38
-140 11 -36 29 -103 41 -150 12 -47 31 -114 41 -150 10 -36 27 -100 38 -142
20 -76 34 -128 85 -313 13 -49 34 -128 47 -175 12 -47 31 -111 41 -142 10 -32
18 -64 18 -73 0 -8 9 -42 21 -75 11 -34 18 -67 15 -75 -5 -13 -187 -15 -1428
-13 -1368 3 -1423 4 -1426 21 -2 10 5 49 17 85 11 37 29 102 40 145 21 76 36
134 86 317 14 52 35 129 46 170 11 41 28 104 38 140 10 36 29 103 41 150 12
47 30 114 40 150 10 36 30 110 45 165 15 55 32 120 39 145 8 25 23 83 36 130
12 47 33 126 46 175 51 185 65 237 85 313 11 42 29 106 39 142 10 36 28 103
40 150 12 47 29 108 37 135 8 28 24 83 34 123 10 39 28 107 40 150 11 42 30
111 41 152 11 41 29 107 39 145 20 69 42 150 80 295 28 105 55 203 78 285 10
39 28 104 39 145 22 83 64 237 93 345 11 39 31 113 45 165 14 52 32 118 39
145 8 28 19 70 26 95 6 25 20 74 30 110 38 139 105 389 125 465 30 114 45 131
62 73z m-2037 -5684 c10 -13 10 -21 0 -47 -7 -18 -21 -63 -31 -102 -10 -38
-30 -113 -45 -165 -15 -52 -31 -113 -35 -135 -5 -22 -13 -52 -19 -68 -6 -15
-17 -55 -26 -90 -8 -34 -26 -102 -40 -152 -14 -49 -32 -115 -40 -145 -7 -30
-26 -98 -40 -150 -28 -102 -41 -150 -74 -274 -12 -44 -27 -102 -35 -130 -21
-74 -52 -190 -75 -276 -11 -41 -32 -118 -46 -170 -14 -52 -35 -129 -46 -170
-11 -41 -28 -104 -38 -140 -11 -36 -29 -103 -41 -150 -12 -47 -30 -114 -40
-150 -28 -99 -57 -207 -79 -290 -11 -41 -32 -118 -46 -170 -14 -52 -35 -129
-46 -170 -11 -41 -28 -104 -38 -140 -11 -36 -29 -103 -41 -150 -21 -80 -34
-129 -80 -295 -11 -38 -28 -104 -39 -145 -50 -186 -64 -239 -82 -300 -10 -36
-25 -92 -34 -125 -8 -33 -27 -103 -41 -155 -14 -52 -30 -114 -35 -138 -4 -23
-13 -51 -18 -61 -6 -10 -15 -46 -20 -80 -10 -62 -56 -179 -67 -169 -3 3 -5
1105 -4 2449 0 2275 1 2445 17 2457 13 9 162 12 664 12 577 0 648 -2 660 -16z
m5348 2 c8 -10 11 -623 12 -2352 0 -1287 4 -2373 8 -2414 4 -41 6 -83 3 -92
-12 -48 -46 9 -67 114 -8 40 -26 114 -40 163 -14 50 -32 115 -40 145 -7 30
-26 98 -40 150 -15 52 -32 118 -40 145 -7 28 -25 95 -40 150 -15 55 -35 129
-45 165 -32 120 -71 265 -91 335 -11 39 -26 95 -34 125 -7 30 -25 98 -40 150
-14 52 -32 120 -40 150 -8 30 -23 87 -34 125 -20 70 -59 215 -91 335 -10 36
-30 110 -45 165 -63 235 -84 314 -125 460 -12 44 -31 114 -42 155 -29 114 -43
165 -78 290 -17 63 -40 148 -51 188 -24 90 -55 205 -80 297 -27 97 -57 207
-79 290 -10 39 -28 106 -40 150 -12 44 -30 109 -40 145 -51 189 -73 272 -91
335 -31 109 -32 114 -25 130 5 13 84 15 654 15 537 0 652 -2 661 -14z"/>
</g>
</svg>
